<svg width="32" height="32" viewBox="0 0 32 32" fill="none" xmlns="http://www.w3.org/2000/svg">
<path d="M14.3015 5.73175C15.0841 4.47312 16.9159 4.47312 17.6985 5.73175L19.9261 9.31452C20.2014 9.75736 20.6388 10.0751 21.1451 10.2002L25.2408 11.2116C26.6797 11.5669 27.2457 13.3091 26.2905 14.4423L23.5715 17.668C23.2354 18.0667 23.0683 18.5809 23.1059 19.101L23.4096 23.3089C23.5163 24.7871 22.0343 25.8638 20.6614 25.3055L16.7534 23.7164C16.2703 23.5199 15.7297 23.5199 15.2466 23.7164L11.3386 25.3055C9.96566 25.8638 8.48368 24.7871 8.59038 23.3089L8.89412 19.101C8.93166 18.5809 8.76459 18.0667 8.42851 17.668L5.70946 14.4423C4.75425 13.3091 5.32032 11.5669 6.75917 11.2116L10.8549 10.2002C11.3612 10.0751 11.7986 9.75736 12.0739 9.31452L14.3015 5.73175Z" fill="#96B2D2"/>
</svg>
