<svg width="24" height="24" viewBox="0 0 24 24" fill="none" xmlns="http://www.w3.org/2000/svg">
<path d="M21.7383 6.88471C20.3816 4.30196 18.0545 2.36393 15.2689 1.49695C12.4834 0.629975 9.46746 0.905076 6.88471 2.26174C4.30196 3.61839 2.36393 5.94548 1.49695 8.73106C0.629974 11.5166 0.905076 14.5325 2.26173 17.1153C3.61839 19.698 5.94548 21.6361 8.73106 22.503C11.5166 23.37 14.5325 23.0949 17.1153 21.7383C19.698 20.3816 21.6361 18.0545 22.503 15.2689C23.37 12.4834 23.0949 9.46746 21.7383 6.88471Z" fill="white"/>
<path d="M15.2689 1.49695C18.0545 2.36393 20.3816 4.30196 21.7383 6.88471C23.0949 9.46746 23.37 12.4834 22.503 15.2689C21.6361 18.0545 19.698 20.3816 17.1153 21.7383C14.5325 23.0949 11.5166 23.37 8.73106 22.503C5.94548 21.6361 3.61839 19.698 2.26173 17.1153C0.905076 14.5325 0.629974 11.5166 1.49695 8.73106C2.36393 5.94548 4.30196 3.61839 6.88471 2.26174C9.46746 0.905076 12.4834 0.629975 15.2689 1.49695Z" fill="white"/>
<path d="M14 7.09977C14 7.45244 13.8296 7.7587 13.4888 8.01856C13.148 8.26914 12.7604 8.39443 12.3259 8.39443C11.8914 8.39443 11.5463 8.30162 11.2907 8.11601C11.0437 7.93039 10.9201 7.67981 10.9201 7.36427C10.9201 6.93735 11.1033 6.60325 11.4696 6.36195C11.836 6.12065 12.2236 6 12.6326 6C13.0415 6 13.3695 6.09281 13.6166 6.27842C13.8722 6.46404 14 6.73782 14 7.09977ZM11.508 18C10.9798 18 10.5964 17.8561 10.3578 17.5684C10.1193 17.2807 10 16.8445 10 16.2599C10 15.6659 10.2726 14.0835 10.8179 11.5128L10.1022 10.3434C11.1672 9.64733 12.0064 9.2993 12.6198 9.2993C12.9691 9.2993 13.2162 9.38283 13.361 9.54988C13.5059 9.70766 13.5783 9.96752 13.5783 10.3295C13.5783 10.4687 13.4207 11.2854 13.1054 12.7796C12.7902 14.2738 12.6326 15.3411 12.6326 15.9814C12.6326 16.6218 12.7646 17.0673 13.0288 17.3179C12.5517 17.7726 12.0447 18 11.508 18Z" fill="#050621"/>
</svg>
