<svg width="24" height="25" viewBox="0 0 24 25" fill="none" xmlns="http://www.w3.org/2000/svg">
<g id="wallet-24p">
<g id="Vector">
<path d="M20.5 7.78V5.5C20.5 4.4 19.6 3.5 18.5 3.5H4.5C3.39 3.5 2.5 4.4 2.5 5.5V19.5C2.5 20.6 3.39 21.5 4.5 21.5H18.5C19.6 21.5 20.5 20.6 20.5 19.5V17.22C21.09 16.87 21.5 16.24 21.5 15.5V9.5C21.5 8.76 21.09 8.13 20.5 7.78ZM19.5 9.5V15.5H12.5V9.5H19.5ZM4.5 19.5V5.5H18.5V7.5H12.5C11.4 7.5 10.5 8.4 10.5 9.5V15.5C10.5 16.6 11.4 17.5 12.5 17.5H18.5V19.5H4.5Z" fill="#C5D9EF"/>
<path d="M15.5 14C16.3284 14 17 13.3284 17 12.5C17 11.6716 16.3284 11 15.5 11C14.6716 11 14 11.6716 14 12.5C14 13.3284 14.6716 14 15.5 14Z" fill="#C5D9EF"/>
</g>
</g>
</svg>
