<svg width="24" height="25" viewBox="0 0 24 25" fill="none" xmlns="http://www.w3.org/2000/svg">
<g id="percent-24p">
<path id="Vector" d="M7.5 4.5C5.57 4.5 4 6.07 4 8C4 9.93 5.57 11.5 7.5 11.5C9.43 11.5 11 9.93 11 8C11 6.07 9.43 4.5 7.5 4.5ZM7.5 9.5C6.67 9.5 6 8.83 6 8C6 7.17 6.67 6.5 7.5 6.5C8.33 6.5 9 7.17 9 8C9 8.83 8.33 9.5 7.5 9.5ZM16.5 13.5C14.57 13.5 13 15.07 13 17C13 18.93 14.57 20.5 16.5 20.5C18.43 20.5 20 18.93 20 17C20 15.07 18.43 13.5 16.5 13.5ZM16.5 18.5C15.67 18.5 15 17.83 15 17C15 16.17 15.67 15.5 16.5 15.5C17.33 15.5 18 16.17 18 17C18 17.83 17.33 18.5 16.5 18.5ZM5.41 20.5L4 19.09L18.59 4.5L20 5.91L5.41 20.5Z" fill="#C5D9EF"/>
</g>
</svg>
