<svg width="14" height="14" viewBox="0 0 14 14" fill="none" xmlns="http://www.w3.org/2000/svg">
<g clip-path="url(#clip0_173_3005)">
<path fill-rule="evenodd" clip-rule="evenodd" d="M3.75003 1.5C3.61196 1.5 3.50003 1.61193 3.50003 1.75V3C3.50003 3.41421 3.16424 3.75 2.75003 3.75C2.33582 3.75 2.00003 3.41421 2.00003 3V1.75C2.00003 0.783502 2.78353 0 3.75003 0H10.2501C11.2166 0 12.0001 0.783502 12.0001 1.75V3C12.0001 3.41421 11.6643 3.75 11.2501 3.75C10.8359 3.75 10.5001 3.41421 10.5001 3V1.75C10.5001 1.61193 10.3881 1.5 10.2501 1.5H3.75003ZM0.308005 3.45627C0.608299 3.17097 1.08302 3.18312 1.36832 3.48342L2.79342 4.98342C3.06844 5.2729 3.06844 5.7271 2.79342 6.01658L1.8591 7L2.79342 7.98342C3.06844 8.2729 3.06844 8.7271 2.79342 9.01658L1.36832 10.5166C1.08302 10.8169 0.608299 10.829 0.308005 10.5437C0.00771041 10.2584 -0.00444476 9.78371 0.280856 9.48342L1.21517 8.5L0.280856 7.51658C0.00583006 7.2271 0.00583006 6.7729 0.280856 6.48342L1.21517 5.5L0.280856 4.51658C-0.00444476 4.21629 0.00771041 3.74157 0.308005 3.45627ZM13.6921 3.45627C13.9924 3.74157 14.0045 4.21629 13.7192 4.51658L12.7849 5.5L13.7192 6.48342C13.9943 6.7729 13.9943 7.2271 13.7192 7.51658L12.7849 8.5L13.7192 9.48342C14.0045 9.78371 13.9924 10.2584 13.6921 10.5437C13.3918 10.829 12.9171 10.8169 12.6318 10.5166L11.2067 9.01658C10.9317 8.7271 10.9317 8.2729 11.2067 7.98342L12.141 7L11.2067 6.01658C10.9317 5.7271 10.9317 5.2729 11.2067 4.98342L12.6318 3.48342C12.9171 3.18312 13.3918 3.17097 13.6921 3.45627ZM3.50003 11.125C3.50003 10.7108 3.16424 10.375 2.75003 10.375C2.33582 10.375 2.00003 10.7108 2.00003 11.125V12.25C2.00003 12.8419 2.36129 13.2816 2.65003 13.5278C2.80616 13.6609 2.97812 13.7709 3.14785 13.8505C3.30221 13.9229 3.51781 14 3.75003 14H10.2501C11.2166 14 12.0001 13.2165 12.0001 12.25V11.25C12.0001 10.8358 11.6643 10.5 11.2501 10.5C10.8359 10.5 10.5001 10.8358 10.5001 11.25V12.25C10.5001 12.3881 10.3881 12.5 10.2501 12.5H3.80191C3.79691 12.4979 3.79114 12.4954 3.78466 12.4924C3.73855 12.4707 3.6794 12.4343 3.62332 12.3864C3.56672 12.3382 3.53 12.2927 3.51079 12.26C3.50489 12.2499 3.50168 12.2429 3.50003 12.2388V11.125ZM6.50003 9.75C6.08582 9.75 5.75003 10.0858 5.75003 10.5C5.75003 10.9142 6.08582 11.25 6.50003 11.25H7.50003C7.91424 11.25 8.25003 10.9142 8.25003 10.5C8.25003 10.0858 7.91424 9.75 7.50003 9.75H6.50003Z" fill="#96B2D2"/>
</g>
<defs>
<clipPath id="clip0_173_3005">
<rect width="14" height="14" fill="white"/>
</clipPath>
</defs>
</svg>
