<svg width="22" height="23" viewBox="0 0 22 23" fill="none" xmlns="http://www.w3.org/2000/svg">
<g id="icons">
<g id="user">
<path id="Vector" d="M11.0001 13.2C14.0329 13.2 16.4914 10.2451 16.4914 6.6C16.4914 2.95492 14.0329 0 11.0001 0C7.96733 0 5.50879 2.95492 5.50879 6.6C5.50879 10.2451 7.96733 13.2 11.0001 13.2Z" fill="#96B2D2"/>
<path id="Vector_2" d="M21.7629 18.9735C20.7745 16.9935 18.9075 15.3435 16.4913 14.3535C15.8323 14.1335 15.0636 14.1335 14.5144 14.4635C13.4162 15.1235 12.3179 15.4535 11 15.4535C9.68209 15.4535 8.58383 15.1235 7.48557 14.4635C6.93644 14.2435 6.16766 14.1335 5.5087 14.4635C3.09253 15.4535 1.22548 17.1035 0.23705 19.0835C-0.531732 20.5135 0.676354 22.1635 2.32374 22.1635H19.6763C21.3236 22.1635 22.5317 20.5135 21.7629 18.9735Z" fill="#96B2D2"/>
</g>
</g>
</svg>
