<svg width="32" height="32" viewBox="0 0 32 32" fill="none" xmlns="http://www.w3.org/2000/svg">
<path fill-rule="evenodd" clip-rule="evenodd" d="M18.5833 7.06628C17.6577 7.33241 16.9142 7.66457 16.5 8.07915C14.8123 6.38981 7.65566 6.06901 4.99849 6.00809C4.44635 5.99544 4 6.44153 4 6.99381V22.7618C4 23.8664 4.89371 24.7653 5.99752 24.8061C9.12925 24.9217 14.9935 25.3392 16.5 26.8471C18.0065 25.3392 23.8708 24.9217 27.0025 24.8061C28.1063 24.7653 29 23.8664 29 22.7618V6.99381C29 6.44153 28.5536 5.99544 28.0015 6.00809C26.8362 6.03481 24.8053 6.11151 22.75 6.33173V18.0226C22.75 18.2009 22.5345 18.2901 22.4085 18.164L20.6667 16.4205L18.9623 19.8326C18.8679 20.0214 18.5833 19.9543 18.5833 19.7432V7.06628Z" fill="#EC6735"/>
</svg>
