<svg width="14" height="14" viewBox="0 0 14 14" fill="none" xmlns="http://www.w3.org/2000/svg">
<g clip-path="url(#clip0_173_3371)">
<path fill-rule="evenodd" clip-rule="evenodd" d="M5.91741 1.60859C7.18387 1.35371 8.54287 1.54114 9.74948 2.23777C12.3796 3.75627 13.2807 7.11938 11.7622 9.74949C10.2437 12.3796 6.88063 13.2807 4.25052 11.7622C1.63807 10.2539 0.73145 6.92572 2.20751 4.3036L3.13637 4.86092C3.39649 5.01699 3.72501 5.00101 3.96874 4.82041C4.21247 4.63982 4.32342 4.33019 4.24985 4.0359L3.6954 1.81811C3.59494 1.41626 3.18774 1.17194 2.78589 1.2724L0.568101 1.82685C0.273812 1.90042 0.052819 2.14403 0.00817119 2.44407C-0.0364765 2.74411 0.104014 3.04151 0.364131 3.19758L0.92088 3.53163C-0.986862 6.87454 0.163332 11.1345 3.50052 13.0613C6.84807 14.994 11.1286 13.847 13.0613 10.4995C14.994 7.15194 13.847 2.87144 10.4995 0.938732C8.96475 0.0526577 7.23205 -0.186063 5.62147 0.138073C5.2154 0.219797 4.95246 0.615233 5.03418 1.02131C5.11591 1.42738 5.51134 1.69032 5.91741 1.60859ZM7 2.75001C7.41421 2.75001 7.75 3.0858 7.75 3.50001V7.07537L9.88587 8.35689C10.2411 8.57 10.3562 9.0307 10.1431 9.38588C9.93001 9.74107 9.46931 9.85624 9.11413 9.64313L6.61413 8.14313C6.38822 8.00759 6.25 7.76346 6.25 7.50001V3.50001C6.25 3.0858 6.58579 2.75001 7 2.75001Z" fill="#96B2D2"/>
</g>
<defs>
<clipPath id="clip0_173_3371">
<rect width="14" height="14" fill="white"/>
</clipPath>
</defs>
</svg>
